<?xml version="1.0" standalone="no"?>
<!DOCTYPE svg PUBLIC "-//W3C//DTD SVG 20010904//EN"
 "http://www.w3.org/TR/2001/REC-SVG-20010904/DTD/svg10.dtd">
<svg version="1.0" xmlns="http://www.w3.org/2000/svg"
 width="2500.000000pt" height="2500.000000pt" viewBox="0 0 2500.000000 2500.000000"
 preserveAspectRatio="xMidYMid meet">

<g transform="translate(0.000000,2500.000000) scale(0.100000,-0.100000)"
fill="#000000" stroke="none">
<path d="M6830 22890 l0 -970 -935 0 -935 0 0 -910 0 -910 -970 0 -970 0 0
-965 0 -965 -950 0 -950 0 0 -5670 0 -5670 950 0 950 0 0 -910 0 -910 970 0
970 0 0 -965 0 -965 935 0 935 0 0 -940 0 -940 5625 0 5625 0 0 940 0 940 925
0 925 0 0 965 0 965 940 0 940 0 0 910 0 910 980 0 980 0 0 5670 0 5670 -980
0 -980 0 0 965 0 965 -940 0 -940 0 0 910 0 910 -925 0 -925 0 0 970 0 970
-5625 0 -5625 0 0 -970z m4410 -5945 l0 -1275 655 0 655 0 0 630 0 630 590 0
590 0 0 605 0 605 1880 0 1880 0 0 -1840 0 -1840 -645 0 -645 0 0 -675 0 -675
-640 0 -640 0 0 -610 0 -610 640 0 640 0 0 -615 0 -615 660 0 660 0 0 -1885 0
-1885 -1870 0 -1870 0 0 645 0 645 -630 0 -630 0 0 615 0 615 -640 0 -640 0 0
-1230 0 -1230 -1910 0 -1910 0 0 5635 0 5635 1910 0 1910 0 0 -1275z"/>
</g>
</svg>
